<svg xmlns="http://www.w3.org/2000/svg" version="1.1" xmlns:xlink="http://www.w3.org/1999/xlink" xmlns:svgjs="http://svgjs.dev/svgjs" width="1500" height="1500" viewBox="0 0 1500 1500"><rect width="1500" height="1500" fill="#000000"></rect><g transform="matrix(0.6666666666666666,0,0,0.6666666666666666,249.39393939393938,624.5359692121725)"><svg viewBox="0 0 396 100" data-background-color="#182524" preserveAspectRatio="xMidYMid meet" height="378" width="1500" xmlns="http://www.w3.org/2000/svg" xmlns:xlink="http://www.w3.org/1999/xlink"><g id="tight-bounds" transform="matrix(1,0,0,1,0.2400000000000091,-0.21268619530655997)"><svg viewBox="0 0 395.52 100.42537239061315" height="100.42537239061315" width="395.52"><g><svg viewBox="0 0 395.52 100.42537239061315" height="100.42537239061315" width="395.52"><g><svg viewBox="0 0 395.52 100.42537239061315" height="100.42537239061315" width="395.52"><g id="textblocktransform"><svg viewBox="0 0 395.52 100.42537239061315" height="100.42537239061315" width="395.52" id="textblock"><g><svg viewBox="0 0 395.52 44.91143073429219" height="44.91143073429219" width="395.52"><g transform="matrix(1,0,0,1,0,0)"><svg width="395.52" viewBox="1 -37.5 330.23 37.5" height="44.91143073429219" data-palette-color="#e2f1e6"><path d="M43.05-37.5L43.05-24.9 21.3-24.9Q21.25-24.9 21.25-24.9 21.25-24.9 21.25-24.9L21.25-24.9 21.25-22.15Q21.25-22.1 21.25-22.08 21.25-22.05 21.25-22.05 21.25-22.05 21.28-22.05 21.3-22.05 21.3-22.05L21.3-22.05 42.3-22.05 42.3-15 21.3-15Q21.3-15 21.28-15 21.25-15 21.25-14.98 21.25-14.95 21.25-14.9L21.25-14.9 21.25-12.1Q21.25-12.1 21.25-12.1 21.25-12.1 21.25-12.1 21.25-12.1 21.28-12.1 21.3-12.1 21.3-12.1L21.3-12.1 43.35-12.1 43.35 0 1 0Q1-2.95 1-5.93 1-8.9 1-11.85 1-14.8 1-17.78 1-20.75 1-23.73 1-26.7 1-29.65L1-29.65Q1-31.6 1-33.58 1-35.55 1-37.5L1-37.5 43.05-37.5ZM66-14.8L66-14.8Q66-14.75 66.02-14.73 66.05-14.7 66.1-14.7L66.1-14.7 85.6-14.7 85.6 0 45.25 0Q45.25-3.1 45.25-6.2 45.25-9.3 45.25-12.43 45.25-15.55 45.25-18.65 45.25-21.75 45.25-24.85L45.25-24.85Q45.25-28 45.25-31.18 45.25-34.35 45.25-37.5L45.25-37.5 66-37.5Q66-34.65 66-31.83 66-29 66-26.15 66-23.3 66-20.48 66-17.65 66-14.8ZM129.3-37.5L129.3-24.9 107.55-24.9Q107.5-24.9 107.5-24.9 107.5-24.9 107.5-24.9L107.5-24.9 107.5-22.15Q107.5-22.1 107.5-22.08 107.5-22.05 107.5-22.05 107.5-22.05 107.52-22.05 107.55-22.05 107.55-22.05L107.55-22.05 128.55-22.05 128.55-15 107.55-15Q107.55-15 107.52-15 107.5-15 107.5-14.98 107.5-14.95 107.5-14.9L107.5-14.9 107.5-12.1Q107.5-12.1 107.5-12.1 107.5-12.1 107.5-12.1 107.5-12.1 107.52-12.1 107.55-12.1 107.55-12.1L107.55-12.1 129.59-12.1 129.59 0 87.25 0Q87.25-2.95 87.25-5.93 87.25-8.9 87.25-11.85 87.25-14.8 87.25-17.78 87.25-20.75 87.25-23.73 87.25-26.7 87.25-29.65L87.25-29.65Q87.25-31.6 87.25-33.58 87.25-35.55 87.25-37.5L87.25-37.5 129.3-37.5ZM156.69-18.75L156.69-18.75Q156.69-18.75 156.69-18.7 156.69-18.65 156.67-18.63 156.64-18.6 156.64-18.55L156.64-18.55 152.44 0 130.69 0Q131.99-3.2 133.17-6.38 134.34-9.55 135.52-12.75 136.69-15.95 137.99-19.1L137.99-19.1Q137.99-19.1 137.99-19.13 137.99-19.15 137.99-19.15 137.99-19.15 137.99-19.18 137.99-19.2 137.99-19.2L137.99-19.2Q136.04-23.8 134.34-28.38 132.64-32.95 130.69-37.5L130.69-37.5 153.19-37.5 156.64-19Q156.64-18.95 156.67-18.9 156.69-18.85 156.69-18.75ZM155.09-16.1L155.09-16.1Q155.09-16.15 155.12-16.18 155.14-16.2 155.14-16.25 155.14-16.3 155.14-16.3L155.14-16.3Q155.89-19.85 156.59-23.38 157.29-26.9 158.02-30.45 158.74-34 159.44-37.5L159.44-37.5 181.14-37.5Q179.29-32.75 177.64-27.95 175.99-23.15 174.09-18.4L174.09-18.4Q174.09-18.4 174.09-18.38 174.09-18.35 174.09-18.35 174.09-18.35 174.09-18.3L174.09-18.3Q174.84-16.45 175.57-14.63 176.29-12.8 176.99-10.98 177.69-9.15 178.39-7.33 179.09-5.5 179.82-3.68 180.54-1.85 181.29 0L181.29 0 158.69 0 155.14-15.9Q155.14-15.95 155.14-15.98 155.14-16 155.12-16.05 155.09-16.1 155.09-16.1ZM181.89-37.5L226.94-37.5 226.94-22.3 214.89-22.3Q214.89-22.3 214.87-22.28 214.84-22.25 214.81-22.25 214.79-22.25 214.79-22.2L214.79-22.2Q214.79-20 214.79-17.78 214.79-15.55 214.79-13.33 214.79-11.1 214.79-8.88 214.79-6.65 214.79-4.42 214.79-2.2 214.79 0L214.79 0 194.04 0Q194.04-3.7 194.04-7.4 194.04-11.1 194.04-14.8 194.04-18.5 194.04-22.2L194.04-22.2Q194.04-22.2 194.04-22.23 194.04-22.25 194.02-22.28 193.99-22.3 193.97-22.3 193.94-22.3 193.94-22.3L193.94-22.3 181.89-22.3 181.89-37.5ZM228.59-37.5L228.59-37.5 264.74-37.5Q269.14-37.5 272.04-35.93 274.94-34.35 276.39-31.88 277.84-29.4 277.84-26.65L277.84-26.65Q277.84-23.8 276.26-21.13 274.69-18.45 271.51-16.75 268.34-15.05 263.59-15.05L263.59-15.05Q263.39-15.05 262.59-15.05 261.79-15.05 260.96-15.05 260.14-15.05 259.89-15.05L259.89-15.05Q259.89-15.05 259.89-15 259.89-14.95 259.89-14.95L259.89-14.95Q259.89-14.95 259.89-14.93 259.89-14.9 259.89-14.88 259.89-14.85 259.89-14.85L259.89-14.85 271.24-14.85 278.94 0 255.19 0Q254.24-2.55 253.26-5.1 252.29-7.65 251.31-10.2 250.34-12.75 249.34-15.3L249.34-15.3 255.14-15.3Q256.14-15.3 256.91-15.6 257.69-15.9 258.19-16.4 258.69-16.9 258.94-17.53 259.19-18.15 259.19-18.8L259.19-18.8Q259.19-19.7 258.74-20.5 258.29-21.3 257.39-21.8 256.49-22.3 255.14-22.3L255.14-22.3 249.44-22.3Q249.44-22.3 249.41-22.28 249.39-22.25 249.36-22.25 249.34-22.25 249.34-22.2L249.34-22.2Q249.34-18.95 249.34-17.43 249.34-15.9 249.34-15.53 249.34-15.15 249.34-15.25L249.34-15.25Q249.34-15.25 249.34-14.73 249.34-14.2 249.34-13.3 249.34-12.4 249.34-11.25L249.34-11.25Q249.34-9.6 249.34-7.6 249.34-5.6 249.34-3.63 249.34-1.65 249.34 0L249.34 0 228.59 0Q228.59-3.2 228.59-6.43 228.59-9.65 228.59-12.85 228.59-16.05 228.59-19.28 228.59-22.5 228.59-25.7L228.59-25.7Q228.59-28.65 228.59-31.6 228.59-34.55 228.59-37.5ZM289.58-37.5L320.63-37.5Q321.53-34.4 322.41-31.28 323.28-28.15 324.16-25.03 325.03-21.9 325.93-18.78 326.83-15.65 327.71-12.53 328.58-9.4 329.46-6.28 330.33-3.15 331.23 0L331.23 0 308.93 0 308.08-4.9Q307.88-4.9 307.73-4.9 307.58-4.9 307.38-4.9L307.38-4.9 301.88-4.9Q301.73-4.9 301.58-4.9 301.43-4.9 301.28-4.9L301.28-4.9 300.43 0 279.08 0Q279.98-3.15 280.86-6.28 281.73-9.4 282.61-12.53 283.48-15.65 284.36-18.78 285.23-21.9 286.11-25.03 286.98-28.15 287.86-31.28 288.73-34.4 289.58-37.5L289.58-37.5ZM301.88-8.45L301.88-8.45Q301.88-8.4 301.88-8.4 301.88-8.4 301.93-8.4L301.93-8.4 307.43-8.4Q307.48-8.4 307.48-8.43 307.48-8.45 307.48-8.45 307.48-8.45 307.48-8.45L307.48-8.45Q307.48-8.45 307.28-9.68 307.08-10.9 306.76-12.78 306.43-14.65 306.08-16.78 305.73-18.9 305.43-20.8 305.13-22.7 304.91-23.9 304.68-25.1 304.68-25.1L304.68-25.1Q304.68-25.1 304.66-25.1 304.63-25.1 304.63-25.1L304.63-25.1Q304.63-25.1 304.43-23.9 304.23-22.7 303.91-20.8 303.58-18.9 303.23-16.78 302.88-14.65 302.58-12.78 302.28-10.9 302.08-9.68 301.88-8.45 301.88-8.45Z" opacity="1" transform="matrix(1,0,0,1,0,0)" fill="#ffffff" class="wordmark-text-0" data-fill-palette-color="primary" id="text-0"></path></svg></g></svg></g><g transform="matrix(1,0,0,1,0,55.51394165632095)"><svg viewBox="0 0 395.52 44.91143073429219" height="44.91143073429219" width="395.52"><g transform="matrix(1,0,0,1,0,0)"><svg width="395.52" viewBox="1.75 -39.65 444.74 50.5" height="44.91143073429219" data-palette-color="#e2f1e6"><path d="M15.25-35.25Q18.1-35.25 20.35-34.23 22.6-33.2 24.6-31.25L24.6-31.25 21.4-27.95Q19.85-29.3 18.5-29.88 17.15-30.45 15.45-30.45L15.45-30.45Q12.15-30.45 10.28-27.5 8.4-24.55 8.4-17.3L8.4-17.3Q8.4-12.2 9.08-9.33 9.75-6.45 11.08-5.3 12.4-4.15 14.55-4.15L14.55-4.15Q16.8-4.15 18.65-5.4L18.65-5.4 18.65-14.75 14.75-14.75 14.1-19.5 24.7-19.5 24.7-2.6Q22.55-1.05 19.93-0.18 17.3 0.7 14.6 0.7L14.6 0.7Q8.15 0.7 4.95-3.68 1.75-8.05 1.75-17.3L1.75-17.3Q1.75-23.3 3.53-27.33 5.3-31.35 8.35-33.3 11.4-35.25 15.25-35.25L15.25-35.25ZM64.72-6.4Q64.72-5.1 65.07-4.48 65.42-3.85 66.22-3.45L66.22-3.45 64.97 0.65Q62.92 0.4 61.69-0.45 60.47-1.3 59.87-3.05L59.87-3.05Q57.57 0.75 53.42 0.75L53.42 0.75Q50.12 0.75 48.17-1.48 46.22-3.7 46.22-7.4L46.22-7.4Q46.22-11.7 48.89-13.95 51.57-16.2 56.67-16.2L56.67-16.2 58.72-16.2 58.72-18.05Q58.72-20.55 57.84-21.58 56.97-22.6 55.02-22.6L55.02-22.6Q52.67-22.6 49.17-21.3L49.17-21.3 47.77-25.3Q49.77-26.2 51.92-26.68 54.07-27.15 56.02-27.15L56.02-27.15Q64.72-27.15 64.72-18.35L64.72-18.35 64.72-6.4ZM55.07-3.7Q57.47-3.7 58.72-7L58.72-7 58.72-12.55 57.27-12.55Q54.72-12.55 53.54-11.4 52.37-10.25 52.37-7.85L52.37-7.85Q52.37-5.8 53.07-4.75 53.77-3.7 55.07-3.7L55.07-3.7ZM101.53-37.7L107.68-37.05 107.68 0 102.23 0 101.93-3.05Q99.58 0.75 95.88 0.75L95.88 0.75Q91.78 0.75 89.61-2.93 87.43-6.6 87.43-13.2L87.43-13.2Q87.43-17.4 88.56-20.58 89.68-23.75 91.68-25.45 93.68-27.15 96.28-27.15L96.28-27.15Q99.48-27.15 101.53-24.5L101.53-24.5 101.53-37.7ZM97.63-3.9Q98.78-3.9 99.71-4.7 100.63-5.5 101.53-7L101.53-7 101.53-19.85Q99.93-22.55 97.88-22.55L97.88-22.55Q93.83-22.55 93.83-13.25L93.83-13.25Q93.83-8.2 94.83-6.05 95.83-3.9 97.63-3.9L97.63-3.9ZM149.4-29.85L150.95-25.1Q149.9-24.6 148.43-24.4 146.95-24.2 144.75-24.2L144.75-24.2Q146.85-23.2 147.88-21.53 148.9-19.85 148.9-17.4L148.9-17.4Q148.9-13.4 146.45-10.95 144-8.5 139.8-8.5L139.8-8.5Q138.55-8.5 137.25-8.9L137.25-8.9Q136.35-8.15 136.35-6.85L136.35-6.85Q136.35-5.85 136.9-5.35 137.45-4.85 138.95-4.85L138.95-4.85 141.75-4.85Q145.75-4.85 148.1-2.78 150.45-0.7 150.45 2.5L150.45 2.5Q150.45 6.3 147.53 8.58 144.6 10.85 139.2 10.85L139.2 10.85Q133.5 10.85 131.23 8.75 128.95 6.65 128.95 2.6L128.95 2.6 134.4 2.6Q134.4 4.75 135.4 5.65 136.4 6.55 139.25 6.55L139.25 6.55Q142 6.55 143.15 5.6 144.3 4.65 144.3 2.9L144.3 2.9Q144.3 1.2 143.35 0.4 142.4-0.4 140.4-0.4L140.4-0.4 138.5-0.4Q134.7-0.4 132.95-1.75 131.2-3.1 131.2-5.45L131.2-5.45Q131.2-6.8 131.93-8.03 132.65-9.25 133.9-10.2L133.9-10.2Q131.85-11.5 130.9-13.3 129.95-15.1 129.95-17.7L129.95-17.7Q129.95-22.05 132.55-24.58 135.15-27.1 139.55-27.1L139.55-27.1Q142.8-27.1 144.93-27.8 147.05-28.5 149.4-29.85L149.4-29.85ZM139.55-23Q137.8-23 136.9-21.75 136-20.5 136-17.8L136-17.8Q136-15.25 136.9-13.88 137.8-12.5 139.5-12.5L139.5-12.5Q141.25-12.5 142.1-13.73 142.95-14.95 142.95-17.85L142.95-17.85Q142.95-20.55 142.13-21.78 141.3-23 139.55-23L139.55-23ZM190.62-13.85Q190.62-13.4 190.47-11.3L190.47-11.3 176.82-11.3Q177.02-7.2 178.24-5.58 179.47-3.95 181.72-3.95L181.72-3.95Q183.27-3.95 184.52-4.48 185.77-5 187.22-6.15L187.22-6.15 189.77-2.65Q186.27 0.75 181.37 0.75L181.37 0.75Q176.17 0.75 173.39-2.85 170.62-6.45 170.62-13L170.62-13Q170.62-19.55 173.27-23.35 175.92-27.15 180.77-27.15L180.77-27.15Q185.42-27.15 188.02-23.78 190.62-20.4 190.62-13.85L190.62-13.85ZM184.62-15.3L184.62-15.65Q184.62-19.4 183.72-21.13 182.82-22.85 180.82-22.85L180.82-22.85Q178.97-22.85 177.99-21.18 177.02-19.5 176.82-15.3L176.82-15.3 184.62-15.3ZM224.13-5L226.28-1.2Q223.83 0.75 220.53 0.75L220.53 0.75Q217.08 0.75 215.28-1.23 213.48-3.2 213.48-6.6L213.48-6.6 213.48-22 210.38-22 210.38-26.45 213.48-26.45 213.48-32.3 219.63-33.05 219.63-26.45 224.63-26.45 224.03-22 219.63-22 219.63-6.6Q219.63-4.2 221.68-4.2L221.68-4.2Q222.33-4.2 222.83-4.38 223.33-4.55 224.13-5L224.13-5ZM286.42-35.25Q292.52-35.25 295.82-30.8 299.12-26.35 299.12-17.3L299.12-17.3Q299.12-8.35 295.82-3.8 292.52 0.75 286.42 0.75L286.42 0.75Q280.37 0.75 277.04-3.75 273.72-8.25 273.72-17.25L273.72-17.25Q273.72-26.15 277.04-30.7 280.37-35.25 286.42-35.25L286.42-35.25ZM286.42-30.45Q283.37-30.45 281.89-27.4 280.42-24.35 280.42-17.25L280.42-17.25Q280.42-10.1 281.92-7.13 283.42-4.15 286.42-4.15L286.42-4.15Q289.52-4.15 290.99-7.1 292.47-10.05 292.47-17.3L292.47-17.3Q292.47-24.4 290.97-27.43 289.47-30.45 286.42-30.45L286.42-30.45ZM338.69-6.4Q338.69-5.1 339.04-4.48 339.39-3.85 340.19-3.45L340.19-3.45 338.94 0.65Q336.89 0.4 335.66-0.45 334.44-1.3 333.84-3.05L333.84-3.05Q331.54 0.75 327.39 0.75L327.39 0.75Q324.09 0.75 322.14-1.48 320.19-3.7 320.19-7.4L320.19-7.4Q320.19-11.7 322.86-13.95 325.54-16.2 330.64-16.2L330.64-16.2 332.69-16.2 332.69-18.05Q332.69-20.55 331.81-21.58 330.94-22.6 328.99-22.6L328.99-22.6Q326.64-22.6 323.14-21.3L323.14-21.3 321.74-25.3Q323.74-26.2 325.89-26.68 328.04-27.15 329.99-27.15L329.99-27.15Q338.69-27.15 338.69-18.35L338.69-18.35 338.69-6.4ZM329.04-3.7Q331.44-3.7 332.69-7L332.69-7 332.69-12.55 331.24-12.55Q328.69-12.55 327.51-11.4 326.34-10.25 326.34-7.85L326.34-7.85Q326.34-5.8 327.04-4.75 327.74-3.7 329.04-3.7L329.04-3.7ZM369.9-27.15Q374.6-27.15 377.85-24.05L377.85-24.05 375.5-20.7Q374.1-21.7 372.85-22.2 371.6-22.7 370.3-22.7L370.3-22.7Q368.85-22.7 368.03-21.93 367.2-21.15 367.2-19.8L367.2-19.8Q367.2-18.45 368.13-17.63 369.05-16.8 371.85-15.7L371.85-15.7Q375.3-14.35 376.95-12.5 378.6-10.65 378.6-7.55L378.6-7.55Q378.6-3.7 375.9-1.48 373.2 0.75 369.05 0.75L369.05 0.75Q366.35 0.75 364.08-0.23 361.8-1.2 360.1-2.95L360.1-2.95 363.1-6.25Q365.9-3.8 368.8-3.8L368.8-3.8Q370.45-3.8 371.4-4.67 372.35-5.55 372.35-7.1L372.35-7.1Q372.35-8.25 371.95-8.97 371.55-9.7 370.55-10.33 369.55-10.95 367.55-11.7L367.55-11.7Q364.1-13.05 362.63-14.85 361.15-16.65 361.15-19.45L361.15-19.45Q361.15-22.8 363.53-24.98 365.9-27.15 369.9-27.15L369.9-27.15ZM400.52-26.45L406.67-26.45 406.67 0 400.52 0 400.52-26.45ZM403.57-39.65Q405.22-39.65 406.24-38.6 407.27-37.55 407.27-35.9L407.27-35.9Q407.27-34.3 406.24-33.25 405.22-32.2 403.57-32.2L403.57-32.2Q401.92-32.2 400.89-33.25 399.87-34.3 399.87-35.9L399.87-35.9Q399.87-37.55 400.89-38.6 401.92-39.65 403.57-39.65L403.57-39.65ZM437.79-27.15Q442.49-27.15 445.74-24.05L445.74-24.05 443.39-20.7Q441.99-21.7 440.74-22.2 439.49-22.7 438.19-22.7L438.19-22.7Q436.74-22.7 435.91-21.93 435.09-21.15 435.09-19.8L435.09-19.8Q435.09-18.45 436.01-17.63 436.94-16.8 439.74-15.7L439.74-15.7Q443.19-14.35 444.84-12.5 446.49-10.65 446.49-7.55L446.49-7.55Q446.49-3.7 443.79-1.48 441.09 0.75 436.94 0.75L436.94 0.75Q434.24 0.75 431.96-0.23 429.69-1.2 427.99-2.95L427.99-2.95 430.99-6.25Q433.79-3.8 436.69-3.8L436.69-3.8Q438.34-3.8 439.29-4.67 440.24-5.55 440.24-7.1L440.24-7.1Q440.24-8.25 439.84-8.97 439.44-9.7 438.44-10.33 437.44-10.95 435.44-11.7L435.44-11.7Q431.99-13.05 430.51-14.85 429.04-16.65 429.04-19.45L429.04-19.45Q429.04-22.8 431.41-24.98 433.79-27.15 437.79-27.15L437.79-27.15Z" opacity="1" transform="matrix(1,0,0,1,0,0)" fill="#ffffff" class="slogan-text-1" data-fill-palette-color="secondary" id="text-1"></path></svg></g></svg></g></svg></g></svg></g><g></g></svg></g><defs></defs></svg><rect width="395.52" height="100.42537239061315" fill="none" stroke="none" visibility="hidden"></rect></g></svg></g></svg>